<svg width="60" height="60" viewBox="0 0 60 60" fill="none" xmlns="http://www.w3.org/2000/svg">
<path d="M60 30C60 46.575 46.575 60 30 60C13.425 60 0 46.575 0 30C0 13.425 13.425 0 30 0C46.575 0 60 13.425 60 30ZM24.51 45.825C37.815 45.825 45.09 34.8 45.09 25.245C45.09 24.93 45.09 24.615 45.075 24.315C46.485 23.295 47.715 22.02 48.69 20.565C47.4 21.135 46.005 21.525 44.535 21.705C46.035 20.805 47.175 19.395 47.715 17.7C46.32 18.525 44.775 19.125 43.125 19.455C41.805 18.045 39.93 17.175 37.845 17.175C33.855 17.175 30.615 20.415 30.615 24.405C30.615 24.975 30.675 25.53 30.81 26.055C24.795 25.755 19.47 22.875 15.9 18.495C15.285 19.56 14.925 20.805 14.925 22.125C14.925 24.63 16.2 26.85 18.15 28.14C16.965 28.11 15.855 27.78 14.88 27.24C14.88 27.27 14.88 27.3 14.88 27.33C14.88 30.84 17.37 33.75 20.685 34.425C20.085 34.59 19.44 34.68 18.78 34.68C18.315 34.68 17.865 34.635 17.415 34.545C18.33 37.425 21 39.51 24.165 39.57C21.69 41.505 18.57 42.66 15.18 42.66C14.595 42.66 14.025 42.63 13.455 42.555C16.62 44.625 20.43 45.825 24.51 45.825Z" fill="white"/>
</svg>
