<svg width="46" height="74" viewBox="0 0 46 74" fill="none" xmlns="http://www.w3.org/2000/svg">
<path d="M11.685 2.18042C11.824 1.70742 12.1126 1.29218 12.5074 0.996905C12.9022 0.701626 13.382 0.542192 13.875 0.542481H32.125C32.4863 0.542755 32.8423 0.62883 33.1638 0.793621C33.4853 0.958411 33.7631 1.1972 33.9743 1.49034C34.1854 1.78348 34.324 2.12258 34.3784 2.47972C34.4329 2.83686 34.4018 3.20184 34.2876 3.54461L26.1664 27.9175H43.5312C43.9585 27.9172 44.3772 28.0368 44.7397 28.2629C45.1022 28.4889 45.394 28.8121 45.5818 29.1958C45.7696 29.5795 45.8459 30.0083 45.802 30.4332C45.7581 30.8581 45.5957 31.2622 45.3334 31.5994L13.3959 72.6619C13.0688 73.0846 12.6035 73.379 12.0815 73.4937C11.5594 73.6084 11.0137 73.5361 10.5394 73.2895C10.0652 73.0429 9.69264 72.6376 9.48675 72.1443C9.28086 71.651 9.25471 71.1011 9.41288 70.5905L17.6299 43.8862H2.46875C2.11408 43.8864 1.76425 43.8039 1.44704 43.6453C1.12983 43.4867 0.853978 43.2563 0.64139 42.9724C0.428802 42.6885 0.285336 42.3589 0.222386 42.0099C0.159436 41.6608 0.178734 41.3019 0.278751 40.9617L11.685 2.18042Z" fill="#FDA761"/>
</svg>
