<svg width="114" height="65" viewBox="0 0 114 65" fill="none" xmlns="http://www.w3.org/2000/svg">
<path d="M24.44 64.6225C20.06 64.6225 15.71 64.0525 11.39 62.9125C7.07 61.7125 3.41 60.0325 0.410004 57.8725L6.08 46.7125C8.48 48.4525 11.27 49.8325 14.45 50.8525C17.63 51.8725 20.84 52.3825 24.08 52.3825C27.74 52.3825 30.62 51.6625 32.72 50.2225C34.82 48.7825 35.87 46.8025 35.87 44.2825C35.87 41.8825 34.94 39.9925 33.08 38.6125C31.22 37.2325 28.22 36.5425 24.08 36.5425H17.42V26.9125L34.97 7.02248L36.59 12.2425H3.56V0.54248H47.66V9.99248L30.2 29.8825L22.82 25.6525H27.05C34.79 25.6525 40.64 27.3925 44.6 30.8725C48.56 34.3525 50.54 38.8225 50.54 44.2825C50.54 47.8225 49.61 51.1525 47.75 54.2725C45.89 57.3325 43.04 59.8225 39.2 61.7425C35.36 63.6625 30.44 64.6225 24.44 64.6225Z" fill="#FDA761"/>
<path d="M65.5617 44.3675C71.0487 44.3675 74.8837 39.9425 74.8837 33.1575C74.8837 26.3725 71.0487 21.9475 65.5617 21.9475C60.0157 21.9475 56.2397 26.4315 56.2397 33.1575C56.2397 39.8835 60.0157 44.3675 65.5617 44.3675ZM62.3757 63.5425H65.8567L94.0587 22.2425H90.5777L62.3757 63.5425ZM65.5617 41.7125C61.6677 41.7125 59.1897 38.4675 59.1897 33.1575C59.1897 27.8475 61.6677 24.6025 65.5617 24.6025C69.3967 24.6025 71.9337 27.7885 71.9337 33.1575C71.9337 38.5265 69.3967 41.7125 65.5617 41.7125ZM90.8727 63.8375C96.4187 63.8375 100.195 59.3535 100.195 52.6275C100.195 45.9015 96.4187 41.4175 90.8727 41.4175C85.3857 41.4175 81.5507 45.9015 81.5507 52.6275C81.5507 59.3535 85.3857 63.8375 90.8727 63.8375ZM90.8727 61.1825C87.0377 61.1825 84.5007 57.9965 84.5007 52.6275C84.5007 47.2585 87.0377 44.0725 90.8727 44.0725C94.7667 44.0725 97.2447 47.3175 97.2447 52.6275C97.2447 57.9375 94.7667 61.1825 90.8727 61.1825Z" fill="#FDA761"/>
</svg>
