<svg width="60" height="60" viewBox="0 0 60 60" fill="none" xmlns="http://www.w3.org/2000/svg">
<path fill-rule="evenodd" clip-rule="evenodd" d="M30 60C46.5685 60 60 46.5685 60 30C60 13.4315 46.5685 0 30 0C13.4315 0 0 13.4315 0 30C0 46.5685 13.4315 60 30 60ZM35.7198 15.0021C38.5783 15.4957 41.3122 16.3576 43.8617 17.5274C43.8838 17.5369 43.9026 17.5528 43.9137 17.575C48.4308 24.2191 50.6618 31.714 49.8278 40.3422C49.8246 40.3787 49.8057 40.4121 49.7757 40.4343C46.3544 42.9468 43.0402 44.4722 39.7718 45.4832C39.7198 45.4991 39.663 45.4801 39.6315 45.4356C38.8763 44.3849 38.1904 43.277 37.5897 42.1136C37.555 42.0453 37.5866 41.9628 37.6575 41.9358C38.747 41.5247 39.7829 41.0327 40.7793 40.4502C40.8581 40.4041 40.8629 40.2914 40.7904 40.2374C40.5791 40.0803 40.3694 39.9152 40.1691 39.7502C40.1313 39.72 40.0808 39.7137 40.0383 39.7343C33.5692 42.7231 26.4821 42.7231 19.9359 39.7343C19.8933 39.7152 19.8428 39.7216 19.8066 39.7518C19.6064 39.9168 19.3966 40.0803 19.1869 40.2374C19.1144 40.2914 19.1207 40.4041 19.1996 40.4502C20.196 41.0216 21.2319 41.5247 22.3198 41.9374C22.3907 41.9644 22.4238 42.0453 22.3891 42.1136C21.8011 43.2786 21.1152 44.3865 20.3458 45.4372C20.3127 45.4801 20.2575 45.4991 20.2055 45.4832C16.9528 44.4722 13.6387 42.9468 10.2173 40.4343C10.1889 40.4121 10.1685 40.3772 10.1653 40.3407C9.46842 32.8775 10.889 25.3207 16.0746 17.5734C16.0872 17.5528 16.1061 17.5369 16.1282 17.5274C18.6793 16.356 21.4132 15.4941 24.2701 15.0021C24.3221 14.9941 24.3741 15.0179 24.401 15.064C24.7541 15.6893 25.1577 16.4909 25.4305 17.1464C28.442 16.6861 31.5007 16.6861 34.5752 17.1464C34.8479 16.5052 35.2374 15.6893 35.589 15.064C35.6158 15.0164 35.6678 14.9925 35.7198 15.0021ZM19.7719 31.7648C19.7719 33.987 21.3958 35.7964 23.3667 35.7964C25.369 35.7964 26.9615 33.987 26.9615 31.7648C26.993 29.5586 25.3848 27.7333 23.3667 27.7333C21.3643 27.7333 19.7719 29.5427 19.7719 31.7648ZM33.0632 31.7648C33.0632 33.987 34.6871 35.7964 36.6579 35.7964C38.6761 35.7964 40.2527 33.987 40.2527 31.7648C40.2842 29.5586 38.6761 27.7333 36.6579 27.7333C34.6555 27.7333 33.0632 29.5427 33.0632 31.7648Z" fill="white"/>
</svg>
