<svg width="197" height="37" viewBox="0 0 197 37" fill="none" xmlns="http://www.w3.org/2000/svg">
<g opacity="0.6">
<path fill-rule="evenodd" clip-rule="evenodd" d="M41.5938 21.2567V21.2909C41.5938 23.8718 43.6307 25.9997 46.4324 25.9997C49.2678 25.9997 51.3219 23.8371 51.3219 21.2567V21.2226C51.3219 18.6431 49.2844 16.5139 46.4645 16.5139C43.6473 16.5139 41.5938 18.6763 41.5938 21.2567ZM48.3231 21.2571V21.2912C48.3231 22.3791 47.5914 23.3026 46.4644 23.3026C45.374 23.3026 44.5906 22.3626 44.5906 21.2571V21.223C44.5906 20.1187 45.3065 19.1966 46.4323 19.1966C47.526 19.1966 48.3231 20.1349 48.3231 21.2571Z" fill="white"/>
<path fill-rule="evenodd" clip-rule="evenodd" d="M52.0508 21.2569V21.291C52.0508 23.872 54.0863 25.9999 56.8887 25.9999C59.7247 25.9999 61.7788 23.8373 61.7788 21.2569V21.2227C61.7788 18.6432 59.7413 16.5142 56.9222 16.5142C54.101 16.5142 52.0508 18.6764 52.0508 21.2569ZM58.7788 21.2573V21.2914C58.7788 22.3793 58.0457 23.3028 56.9222 23.3028C55.8307 23.3028 55.0477 22.3629 55.0477 21.2573V21.2232C55.0477 20.1188 55.7645 19.1968 56.8886 19.1968C57.9808 19.1968 58.7788 20.1351 58.7788 21.2573Z" fill="white"/>
<path fill-rule="evenodd" clip-rule="evenodd" d="M84.3984 21.2567V21.2909C84.3984 23.8718 86.4345 25.9997 89.2364 25.9997C92.0735 25.9997 94.1264 23.8371 94.1264 21.2567V21.2226C94.1264 18.6431 92.0906 16.5139 89.2698 16.5139C86.4513 16.5139 84.3984 18.6763 84.3984 21.2567ZM91.1275 21.2571V21.2913C91.1275 22.3791 90.3938 23.3027 89.2698 23.3027C88.1791 23.3027 87.3968 22.3626 87.3968 21.2571V21.223C87.3968 20.1187 88.1125 19.1966 89.2364 19.1966C90.3288 19.1966 91.1275 20.1349 91.1275 21.2571Z" fill="white"/>
<path d="M95.0977 21.2829V21.2486C95.0977 18.6804 97.0196 16.5142 99.8027 16.5142C101.608 16.5142 102.813 17.3215 103.562 18.5289L101.479 20.1422C101.039 19.5521 100.568 19.185 99.8353 19.185C98.8277 19.185 98.094 20.1083 98.094 21.2145V21.2486C98.094 22.4232 98.8114 23.3144 99.8507 23.3144C100.6 23.3144 101.072 22.9599 101.542 22.3725L103.61 23.9183C102.797 25.1601 101.624 25.9999 99.7043 25.9999C97.035 25.9999 95.0977 23.8511 95.0977 21.2829Z" fill="white"/>
<path d="M114.001 17.1954H109.971L107.511 19.078V14.0649H104.453V26H107.511V22.326L108 21.9356L110.775 26H113.969L110.083 20.2732L114.001 17.2797V17.1954Z" fill="white"/>
<path d="M42.5665 16.7634H36V25.75H39.0921L39.0943 25.7451V19.5221L42.5665 16.8467V16.7634Z" fill="white"/>
<path d="M69.3164 24.6375L70.4435 22.7967C71.4591 23.4858 72.5874 23.8029 73.5022 23.8029C74.0432 23.8029 74.3049 23.5921 74.3049 23.2753V23.2412C74.3049 22.871 73.8321 22.5827 72.8984 22.3282C71.1721 21.857 69.7277 21.0795 69.7277 19.5574V19.5255C69.7277 17.59 71.228 16.5142 73.2741 16.5142C74.5649 16.5142 75.7372 16.8497 76.748 17.464L75.7672 19.4591C74.8902 18.9519 74.0963 18.701 73.2408 18.701C72.768 18.701 72.5204 18.9182 72.5204 19.1893V19.2227C72.5204 19.5745 73.0015 19.835 73.9168 20.1233C75.6664 20.627 77.0989 21.4076 77.0989 22.9204V22.9546C77.0989 24.9551 75.6446 25.9999 73.4872 25.9999C71.9977 25.9999 70.526 25.5447 69.3164 24.6375Z" fill="white"/>
<path d="M66.5092 16.184C66.5092 15.5907 66.8242 15.319 67.4067 15.319H68.5889V13.5214C68.1063 13.3713 67.4907 13.2693 66.541 13.2693C65.4583 13.2693 64.7269 13.5035 64.1779 14.0664C63.6453 14.607 63.4154 15.3863 63.4154 16.4361V16.686H62.2656V19.3177H63.4154V25.7506H66.5741V19.3177H68.5889V16.6907H66.5092V16.184Z" fill="white"/>
<path d="M82.7634 23.2369C82.1817 23.2369 81.8652 22.9362 81.9011 22.3146V19.2737H83.9131V16.6234H81.9011V14.2676H78.7395V16.6234H77.5898V19.2737H78.7395V22.9454C78.7395 25.108 79.7839 26 81.6804 26C82.5642 26 83.3129 25.7773 83.9131 25.4552V23.2369H82.7634Z" fill="white"/>
</g>
<path d="M115 20.1838C115 16.7814 117.68 14.0085 121.374 14.0085C125.053 14.0112 127.709 16.7841 127.709 20.1838C127.709 23.5835 125.053 26.3591 121.396 26.3591C117.68 26.3617 115 23.5888 115 20.1838ZM122.758 21.9554V18.3936H119.964V21.958L122.758 21.9554Z" fill="white"/>
<path d="M133.758 26.0271V14.3618H133.989C137.79 14.3618 140.629 16.7151 140.629 20.1865V26.0271H135.623V18.3937H133.763L128.746 14.3618V26.0271H133.758Z" fill="white"/>
<path d="M141.684 20.184C141.684 16.9676 144.223 14.3594 147.718 14.3594H149.843V18.3939H147.043V21.9583H149.84V26.0273H147.715C144.223 26.0273 141.684 23.4032 141.684 20.184Z" fill="white"/>
<path d="M158.108 18.3938H156.249V26.0272H151.234V10.3062H156.244V14.3619H156.477C160.276 14.3619 163.117 16.7152 163.117 20.1866V26.0272H158.108V18.3938Z" fill="white"/>
<path d="M164.168 20.184C164.168 16.7817 166.848 14.3594 170.556 14.3594H171.929V18.3939H169.143V21.9583H171.94V18.3939L176.58 14.362V26.0273H170.556C166.848 26.0273 164.168 23.5891 164.168 20.184Z" fill="white"/>
<path d="M180.482 9.00208C182.113 9.00208 183.42 10.1442 183.42 11.9237C183.42 13.7033 182.113 14.8453 180.482 14.8453C180.095 14.8603 179.708 14.7949 179.347 14.6534C178.986 14.5118 178.658 14.2972 178.383 14.0228C178.109 13.7485 177.894 13.4204 177.753 13.0592C177.611 12.698 177.546 12.3114 177.561 11.9237C177.546 11.536 177.611 11.1495 177.753 10.7882C177.894 10.427 178.109 10.0989 178.383 9.82461C178.658 9.55028 178.986 9.3356 179.347 9.19406C179.708 9.05252 180.095 8.98716 180.482 9.00208ZM177.988 15.2942H183V26.0272H177.988V15.2942Z" fill="white"/>
<path d="M189.408 26.0271V14.3618H189.641C193.44 14.3618 196.282 16.7151 196.282 20.1865V26.0271H191.272V18.3937H189.413L184.398 14.3618V26.0271H189.408Z" fill="white"/>
<path d="M3.5 27.0001V16.1826L16.5 25.0001V36.0001L11.5 32.5001V26.4297L7.5 23.7188V30.0001L3.5 27.0001Z" stroke="white" stroke-width="1.5" stroke-linejoin="round"/>
<path d="M30.5 16V27L16.5 36V25L30.5 16Z" stroke="white" stroke-width="1.5" stroke-linejoin="round"/>
<path d="M16.5 25V1L33 14.5L16.5 25Z" stroke="white" stroke-width="1.5" stroke-linejoin="round"/>
<path d="M16.5 1L1 14.5L16.5 25V1Z" stroke="white" stroke-width="1.5" stroke-linejoin="round"/>
</svg>
