<svg width="41" height="41" viewBox="0 0 41 41" fill="none" xmlns="http://www.w3.org/2000/svg">
<path d="M40.5 20.5425C40.5 31.5925 31.55 40.5425 20.5 40.5425C9.45 40.5425 0.5 31.5925 0.5 20.5425C0.5 9.49248 9.45 0.54248 20.5 0.54248C31.55 0.54248 40.5 9.49248 40.5 20.5425ZM16.84 31.0925C25.71 31.0925 30.56 23.7425 30.56 17.3725C30.56 17.1625 30.56 16.9525 30.55 16.7525C31.49 16.0725 32.31 15.2225 32.96 14.2525C32.1 14.6325 31.17 14.8925 30.19 15.0125C31.19 14.4125 31.95 13.4725 32.31 12.3425C31.38 12.8925 30.35 13.2925 29.25 13.5125C28.37 12.5725 27.12 11.9925 25.73 11.9925C23.07 11.9925 20.91 14.1525 20.91 16.8125C20.91 17.1925 20.95 17.5625 21.04 17.9125C17.03 17.7125 13.48 15.7925 11.1 12.8725C10.69 13.5825 10.45 14.4125 10.45 15.2925C10.45 16.9625 11.3 18.4425 12.6 19.3025C11.81 19.2825 11.07 19.0625 10.42 18.7025C10.42 18.7225 10.42 18.7425 10.42 18.7625C10.42 21.1025 12.08 23.0425 14.29 23.4925C13.89 23.6025 13.46 23.6625 13.02 23.6625C12.71 23.6625 12.41 23.6325 12.11 23.5725C12.72 25.4925 14.5 26.8825 16.61 26.9225C14.96 28.2125 12.88 28.9825 10.62 28.9825C10.23 28.9825 9.85 28.9625 9.47 28.9125C11.58 30.2925 14.12 31.0925 16.84 31.0925Z" fill="white"/>
</svg>
