<svg width="60" height="59" viewBox="0 0 60 59" fill="none" xmlns="http://www.w3.org/2000/svg">
<path fill-rule="evenodd" clip-rule="evenodd" d="M30 0C13.4254 0 0 13.5338 0 30.2421C0 43.6088 8.60037 54.9333 20.5157 58.9433C22.0074 59.2218 22.5599 58.2936 22.5599 57.4767C22.5599 56.7527 22.5414 54.8591 22.523 52.3343C14.1805 54.1536 12.4125 48.2871 12.4125 48.2871C11.0497 44.7969 9.07919 43.8687 9.07919 43.8687C6.35359 41.9937 9.28177 42.0308 9.28177 42.0308C12.2836 42.2536 13.8858 45.1497 13.8858 45.1497C16.5562 49.7723 20.9024 48.4356 22.6151 47.6559C22.8913 45.7066 23.6648 44.3699 24.512 43.6088C17.8453 42.8476 10.8471 40.2486 10.8471 28.6641C10.8471 25.3596 12.0074 22.6677 13.9411 20.5513C13.628 19.7901 12.5967 16.7083 14.2357 12.5498C14.2357 12.5498 16.7587 11.733 22.4862 15.6502C24.8803 14.9818 27.4401 14.6477 30 14.6291C32.5414 14.6291 35.1197 14.9818 37.5138 15.6502C43.2413 11.733 45.7643 12.5498 45.7643 12.5498C47.4033 16.7083 46.372 19.7901 46.0589 20.5513C47.9742 22.6677 49.1344 25.3596 49.1344 28.6641C49.1344 40.2857 42.1179 42.8291 35.4328 43.5902C36.5009 44.5185 37.477 46.3749 37.477 49.1968C37.477 53.2439 37.4401 56.4928 37.4401 57.4953C37.4401 58.3121 37.9742 59.2404 39.5028 58.9433C51.418 54.9333 60 43.6088 60 30.2607C60 13.5338 46.5746 0 30 0Z" fill="white"/>
</svg>
