<svg width="97" height="119" viewBox="0 0 97 119" fill="none" xmlns="http://www.w3.org/2000/svg">
<path opacity="0.7" d="M46.5618 92.2203L10.7056 73.8076L0.0455933 92.2203C16.3263 92.2203 33.3176 105.788 39.7782 112.571C41.7164 114.509 46.1742 118.386 48.5 118.386C50.8258 118.386 54.6375 114.509 56.2527 112.571C68.657 99.3915 88.5556 93.5124 96.9544 92.2203L86.2944 73.8076L50.4382 92.2203H46.5618Z" fill="#FDA761"/>
<path d="M28.1491 37.9513L48.5 0.156921L68.8508 37.9513L49.469 47.6422H47.5309L28.1491 37.9513Z" fill="#FDA761"/>
<path opacity="0.8" d="M15.551 64.1167L24.2728 46.6732L47.5309 57.3331H50.4382C52.764 57.3331 66.2666 50.2265 72.7272 46.6732L81.449 64.1167L49.4691 81.5603H47.5309L15.551 64.1167Z" fill="#FDA761"/>
</svg>
