<svg width="78" height="78" viewBox="0 0 78 78" fill="none" xmlns="http://www.w3.org/2000/svg">
<path d="M47.9332 2.87354C47.076 1.42979 45.4969 0.54248 43.8125 0.54248C42.1281 0.54248 40.549 1.42979 39.6918 2.87354L25.2543 26.936C24.367 28.4249 24.3369 30.2747 25.1941 31.7786C26.0514 33.2825 27.6455 34.2149 29.375 34.2149H58.25C59.9795 34.2149 61.5887 33.2825 62.4309 31.7786C63.273 30.2747 63.258 28.4249 62.3707 26.936L47.9332 2.87354ZM43.8125 47.4644V69.1206C43.8125 72.4442 46.5045 75.1362 49.8281 75.1362H71.4844C74.808 75.1362 77.5 72.4442 77.5 69.1206V47.4644C77.5 44.1407 74.808 41.4487 71.4844 41.4487H49.8281C46.5045 41.4487 43.8125 44.1407 43.8125 47.4644ZM19.75 77.5425C30.3826 77.5425 39 68.9251 39 58.2925C39 47.6599 30.3826 39.0425 19.75 39.0425C9.11738 39.0425 0.5 47.6599 0.5 58.2925C0.5 68.9251 9.11738 77.5425 19.75 77.5425Z" fill="#93DFC2"/>
</svg>
