<svg width="127" height="113" viewBox="0 0 127 113" fill="none" xmlns="http://www.w3.org/2000/svg">
<path opacity="0.7" d="M63.5 79.1923C60.4784 79.1923 57.62 77.8557 55.6592 75.5242C51.4371 70.5066 46.9466 64.7926 42.8834 58.9315V98.2939L84.1166 112.136V58.9336C80.0534 64.7926 75.565 70.5088 71.3408 75.5264C69.38 77.8557 66.5216 79.1923 63.5 79.1923Z" fill="#FDA761"/>
<path opacity="0.8" d="M92.0972 49.0159L121.938 35.2435C124.209 34.323 126.68 36.0193 126.68 38.5003V93.3619C126.68 94.7636 126.266 96.1332 125.49 97.2939C124.715 98.4546 123.615 99.353 122.331 99.8733L92.0972 112.136V49.0159Z" fill="#FDA761"/>
<path opacity="0.6" d="M1.50996 50.4915C2.28509 49.3432 3.38536 48.4542 4.66886 47.9391L30.3098 37.6498C31.4294 40.8765 32.9921 44.2506 34.9028 47.7158V98.2579L5.06224 111.884C2.79058 112.795 0.320084 111.117 0.320084 108.662V54.3816C0.320391 52.9947 0.734835 51.6398 1.50996 50.4915Z" fill="#FDA761"/>
<path opacity="0.9" fill-rule="evenodd" clip-rule="evenodd" d="M63.8325 0.406921C48.6466 0.406921 36.3368 12.7167 36.3368 27.9027C36.3368 40.1797 54.3072 62.556 61.1921 70.6782C62.5865 72.3235 65.0807 72.3235 66.473 70.6782C73.3578 62.556 91.3283 40.1797 91.3283 27.9027C91.3283 12.7167 79.0185 0.406921 63.8325 0.406921ZM67.2264 21.2263L63.7234 10.445L60.2204 21.2263H48.8843L58.0554 27.8894L54.5523 38.6707L63.7234 32.0075L72.8945 38.6707L69.3914 27.8894L78.5625 21.2263H67.2264Z" fill="#FDA761"/>
</svg>
