<svg width="93" height="78" viewBox="0 0 93 78" fill="none" xmlns="http://www.w3.org/2000/svg">
<circle cx="62.6085" cy="23.4246" r="8.35377" fill="#93DFC2"/>
<circle cx="24.8349" cy="21.9717" r="8.35377" fill="#93DFC2"/>
<path d="M24.8349 22.3349L36.0943 5.9906M24.8349 22.3349L16.1179 5.9906M24.8349 22.3349L4.85849 26.3302M24.8349 22.3349L12.1226 42.3114M24.8349 22.3349L42.9953 37.5897M42.9953 37.5897L62.9717 23.4246M42.9953 37.5897L37.184 56.1132M62.9717 23.4246L66.6038 5.9906M62.9717 23.4246L72.0519 42.3114M72.0519 42.3114L88.3962 41.5849M72.0519 42.3114L59.3396 62.2878M59.3396 62.2878L72.7783 67.7359M59.3396 62.2878L37.184 56.1132M37.184 56.1132L24.8349 43.0378M37.184 56.1132L24.1085 71.0048M37.184 56.1132L49.1698 73.184" stroke="#93DFC2" stroke-width="2"/>
<circle cx="37.184" cy="56.1133" r="8.35377" fill="#93DFC2"/>
<circle cx="16.1179" cy="5.26418" r="4.7217" fill="#93DFC2"/>
<circle cx="36.4575" cy="5.26418" r="4.7217" fill="#93DFC2"/>
<circle cx="42.6321" cy="37.5896" r="5.81132" fill="#93DFC2"/>
<circle cx="71.6887" cy="42.6746" r="5.81132" fill="#93DFC2"/>
<circle cx="59.3396" cy="62.2878" r="5.81132" fill="#93DFC2"/>
<circle cx="48.8066" cy="72.8208" r="4.7217" fill="#93DFC2"/>
<circle cx="24.1085" cy="70.6416" r="4.7217" fill="#93DFC2"/>
<circle cx="72.7783" cy="67.7359" r="4.7217" fill="#93DFC2"/>
<circle cx="5.2217" cy="25.6038" r="4.7217" fill="#93DFC2"/>
<circle cx="25.5613" cy="43.0377" r="4.7217" fill="#93DFC2"/>
<circle cx="12.1226" cy="41.9482" r="5.81132" fill="#93DFC2"/>
<circle cx="66.2406" cy="5.26418" r="4.7217" fill="#93DFC2"/>
<circle cx="88.033" cy="41.585" r="4.7217" fill="#93DFC2"/>
</svg>
