<svg width="117" height="152" viewBox="0 0 117 152" fill="none" xmlns="http://www.w3.org/2000/svg">
<path d="M82.3407 110.586L73.1953 59.4795L114.35 76.9633L82.3407 110.586Z" fill="#232A35" stroke="#142917" stroke-opacity="0.7"/>
<path d="M48.0453 110.048L73.4641 57.7314L71.7699 36.6187L12.8086 89.4713L48.0453 110.048Z" fill="#232A35"/>
<path d="M13.3466 89.4713L73.4641 57.7314M73.4641 57.7314L48.0453 110.048L12.8086 89.4713L72.5226 35.9438M73.4641 57.7314L71.7157 35.9438" stroke="#142917" stroke-opacity="0.7"/>
<path d="M82.6128 111.796L73.3329 58L47.9141 110.048L82.6128 111.796Z" fill="#232A35" stroke="#142917" stroke-opacity="0.7"/>
<path d="M1.51172 39.7094L27.872 5.01072L28.5795 6.22114L70.9091 1.64844L55.3082 51.9481L1.51172 39.7094Z" fill="#232A35"/>
<path d="M55.3082 51.9481L1.51172 39.7094L27.872 5.01072L28.5795 6.22114M55.3082 51.9481L70.9091 1.64844L28.5795 6.22114M55.3082 51.9481L28.5795 6.22114" stroke="#142917" stroke-opacity="0.7"/>
<path d="M12.5411 90.0089L1.10938 39.5747L55.0403 52.3514L12.5411 90.0089Z" fill="#232A35" stroke="#142917" stroke-opacity="0.7"/>
<path d="M114.618 28.1429L70.1016 2.45508L73.4638 60.1518L114.618 28.1429Z" fill="#232A35" stroke="#142917" stroke-opacity="0.7"/>
<path d="M114.752 77.0982V28.5469L73.8672 60.1523L114.752 77.0982Z" fill="#232A35" stroke="#142917" stroke-opacity="0.7"/>
<path d="M55.4453 51.5446L70.2393 3.53125L72.1222 37.0195L55.4453 51.5446Z" fill="#232A35" stroke="#142917" stroke-opacity="0.7"/>
<path d="M60.1483 64.0059L63.5162 64L65.0797 73.8379L72.6452 64.4741L76 64.8297L66.0885 80.9496L75.6129 148.097C74.8516 149.065 71.8824 151 66.0962 151C60.3101 151 57.3409 149.065 56.5796 148.097L56 64C56 64 57.7692 64.0059 60.1483 64.0059Z" fill="#309493" stroke="white"/>
<g opacity="0.95">
<path d="M54.3691 87.8579L14.1562 89.6063L47.51 109.914L81.6708 111.797L54.3691 87.8579Z" fill="#93DFC2" stroke="white"/>
<path opacity="0.7" d="M81.6689 111.797L54.3672 87.8576L64.185 86.0904L114.888 76.9639L81.6689 111.797Z" fill="#309493" stroke="white"/>
<path d="M88.3951 40.7858L114.486 27.0677V76.8294L88.3951 40.7858Z" fill="#309493"/>
<path d="M88.3951 40.7858L114.486 27.0677V76.8294L88.3951 40.7858ZM88.3951 40.7858L70.5078 16.7119" stroke="white"/>
<path d="M72.257 1.64893L28.8164 6.49061L70.3742 16.3085L72.257 1.64893Z" fill="#309493" stroke="white"/>
<g opacity="0.7">
<path d="M2.32031 39.71L18.1903 48.9898L13.3486 90.5476L2.32031 39.71Z" fill="#309493"/>
<path d="M13.3486 89.4717L18.1903 48.9898M18.1903 48.9898L2.32031 39.71L13.3486 90.5476L18.1903 48.9898Z" stroke="white"/>
</g>
<path d="M28.5469 5.95264L70.2391 16.174L33.3886 64.1873L28.5469 5.95264Z" fill="#232A35" stroke="white"/>
<path opacity="0.8" d="M28.5469 5.95264L70.2391 16.174L33.3886 64.1873L28.5469 5.95264Z" fill="#309493" stroke="white"/>
<path d="M28.6806 5.95264L33.5223 64.3218L18.4592 49.1243L2.32031 39.5754L28.6806 5.95264Z" fill="#93DFC2" stroke="white"/>
<path d="M64.1853 86.0907L114.888 76.9641L70.2374 16.5776L13.3477 89.4718L54.3674 87.8579L64.1853 86.0907Z" fill="#309493" stroke="white"/>
</g>
<path opacity="0.9" d="M72.2551 1.51416L114.485 27.4709L88.1251 40.9201L69.9688 16.3082L72.2551 1.51416Z" fill="#93DFC2" stroke="white"/>
<path d="M33.5219 63.9179L18.5934 49.5273L13.6172 89.6057L33.5219 63.9179Z" fill="#309493" stroke="white"/>
</svg>
