<svg width="101" height="128" viewBox="0 0 101 128" fill="none" xmlns="http://www.w3.org/2000/svg">
<path d="M100.158 47.3576C100.159 54.1483 98.6564 60.855 95.758 66.996C92.8596 73.1371 88.6373 78.5602 83.3944 82.876V122.795C83.3944 123.906 82.9528 124.972 82.1669 125.758C81.3809 126.544 80.3149 126.986 79.2034 126.986C78.5533 126.972 77.9123 126.83 77.3175 126.567L54.0576 114.884L30.7978 126.567C30.1555 126.884 29.4427 127.031 28.7274 126.995C28.012 126.958 27.318 126.738 26.7116 126.357C26.1002 125.986 25.5955 125.463 25.2466 124.838C24.8978 124.214 24.7166 123.51 24.7209 122.795V82.876C18.7275 77.9316 14.0809 71.5527 11.2128 64.3318C8.3448 57.1109 7.34832 49.2822 8.31597 41.573C9.28362 33.8639 12.184 26.5243 16.7477 20.2362C21.3114 13.9481 27.3903 8.91544 34.4198 5.60573C41.4492 2.29603 49.2012 0.816653 56.9555 1.30504C64.7098 1.79343 72.2148 4.23374 78.7735 8.39928C85.3321 12.5648 90.7316 18.3204 94.4702 25.1314C98.2089 31.9424 100.165 39.5879 100.158 47.3576Z" fill="#309493" fill-opacity="0.7"/>
<path d="M76.2772 47.3575C76.2772 53.1598 74.5566 58.8318 71.333 63.6562C68.1095 68.4806 63.5277 72.2407 58.1671 74.4612C52.8065 76.6816 46.9079 77.2626 41.2171 76.1306C35.5263 74.9986 30.299 72.2046 26.1962 68.1018C22.0934 63.9989 19.2994 58.7716 18.1674 53.0809C17.0354 47.3901 17.6164 41.4914 19.8368 36.1309C22.0572 30.7703 25.8174 26.1885 30.6418 22.9649C35.4662 19.7414 41.1382 18.0208 46.9404 18.0208C54.721 18.0208 62.1829 21.1116 67.6846 26.6133C73.1863 32.115 76.2772 39.577 76.2772 47.3575ZM93.041 47.3575C93.042 54.1483 91.5393 60.8549 88.6408 66.996C85.7424 73.1371 81.5201 78.5602 76.2772 82.876V122.795C76.2772 123.906 75.8356 124.972 75.0497 125.758C74.2637 126.544 73.1977 126.986 72.0862 126.986C71.4361 126.972 70.7951 126.83 70.2003 126.567L46.9404 114.884L23.6806 126.567C23.0383 126.884 22.3255 127.031 21.6102 126.995C20.8948 126.958 20.2008 126.738 19.5944 126.357C18.9831 125.986 18.4783 125.463 18.1294 124.838C17.7806 124.214 17.5994 123.51 17.6037 122.795V82.876C11.6103 77.9316 6.96371 71.5527 4.09566 64.3318C1.22762 57.1109 0.231132 49.2822 1.19878 41.573C2.16643 33.8639 5.06681 26.5243 9.6305 20.2362C14.1942 13.9481 20.2731 8.91544 27.3026 5.60573C34.3321 2.29603 42.084 0.816653 49.8383 1.30504C57.5926 1.79343 65.0976 4.23374 71.6563 8.39927C78.2149 12.5648 83.6144 18.3204 87.353 25.1314C91.0917 31.9424 93.0483 39.5879 93.041 47.3575ZM84.6591 47.3575C84.6591 39.8975 82.4469 32.605 78.3024 26.4022C74.1578 20.1994 68.2669 15.3649 61.3747 12.51C54.4826 9.6552 46.8986 8.90825 39.5819 10.3636C32.2652 11.819 25.5444 15.4114 20.2693 20.6864C14.9943 25.9615 11.4019 32.6823 9.94652 39.999C8.49113 47.3157 9.23809 54.8997 12.0929 61.7919C14.9478 68.684 19.7823 74.5749 25.9851 78.7195C32.1879 82.8641 39.4804 85.0762 46.9404 85.0762C56.9398 85.0624 66.5256 81.084 73.5962 74.0134C80.6669 66.9427 84.6452 57.3569 84.6591 47.3575Z" fill="#309493" fill-opacity="0.7" stroke="white"/>
</svg>
